# AST/ASF file generated using VICON BodyLanguage
# -----------------------------------------------
:version 1.10
:name VICON
:units
  mass 1.0
  length 0.45
  angle deg
:documentation
   .ast/.asf automatically generated from VICON data using
   VICON BodyBuilder and BodyLanguage model FoxedUp or BRILLIANT.MOD
:root
   order TX TY TZ RX RY RZ
   axis XYZ
   position 0 0 0  
   orientation 0 0 0 
:bonedata
  begin
     id 1 
     name lhipjoint
     direction 0.625129 -0.738222 0.253461 
     length 2.5165 
     axis 0 0 0  XYZ
  end
  begin
     id 2 
     name lfemur
     direction 0.34202 -0.939693 0  
     length 7.54288  
     axis 0 0 20  XYZ
    dof rx ry rz
    limits (-160.0 20.0)
           (-70.0 70.0)
           (-60.0 70.0)
  end
  begin
     id 3 
     name ltibia
     direction 0.34202 -0.939693 0   
     length 7.71864   
     axis 0 0 20   XYZ
    dof rx
    limits (-10.0 170.0)
  end
  begin
     id 4 
     name lfoot
     direction 0.0772037 -0.212115 0.97419   
     length 2.18429   
     axis -90 7.62852e-016 20   XYZ
    dof rx rz
    limits (-45.0 90.0)
           (-70.0 20.0)
  end
  begin
     id 5 
     name ltoes
     direction 1.53513e-011 -4.21834e-011 1   
     length 1.09718   
     axis -90 7.62852e-016 20   XYZ
    dof rx
    limits (-90.0 20.0)
  end
  begin
     id 6 
     name rhipjoint
     direction -0.621946 -0.740623 0.254285   
     length 2.50835  
     axis 0 0 0  XYZ 
  end
  begin
     id 7 
     name rfemur
     direction -0.34202 -0.939693 0   
     length 7.43366   
     axis 0 0 -20   XYZ
    dof rx ry rz
    limits (-160.0 20.0)
           (-70.0 70.0)
           (-70.0 60.0)
  end
  begin
     id 8 
     name rtibia
     direction -0.34202 -0.939693 0   
     length 7.77122   
     axis 0 0 -20   XYZ
    dof rx
    limits (-10.0 170.0)
 end
 begin
     id 9 
     name rfoot
     direction -0.082694 -0.2272 0.970331   
     length 2.2293  
     axis -90 -7.62852e-016 -20   XYZ
    dof rx rz
    limits (-45.0 90.0)
           (-20.0 70.0)
  end
  begin
     id 10 
     name rtoes
     direction -1.53565e-011 -4.21695e-011 1   
     length 1.1178   
     axis -90 -7.62852e-016 -20   XYZ
    dof rx
    limits (-90.0 20.0)
  end
  begin
     id 11 
     name lowerback
     direction -0.000695208 0.988391 -0.151929   
     length 1.95077   
     axis 0 0 0   XYZ
    dof rx ry rz
    limits (-20.0 45.0)
           (-30.0 30.0)
           (-30.0 30.0)
  end
  begin
     id 12 
     name upperback
     direction -0.00268925 0.999885 -0.0149203   
     length 1.96246   
     axis 0 0 0   XYZ
    dof rx ry rz
    limits (-20.0 45.0)
           (-30.0 30.0)
           (-30.0 30.0)
  end
  begin
     id 13 
     name thorax
     direction -0.000848408 0.998481 0.0550912   
     length 2.00867   
     axis 0 0 0   XYZ
    dof rx ry rz
    limits (-20.0 45.0)
           (-30.0 30.0)
           (-30.0 30.0)
  end
  begin
     id 14 
     name lowerneck
     direction -0.00577709 0.998999 0.0443608   
     length 1.75762   
     axis 0 0 0   XYZ
    dof rx ry rz
    limits (-20.0 45.0)
           (-30.0 30.0)
           (-30.0 30.0)
  end
  begin
     id 15 
     name upperneck
     direction 0.0320945 0.999136 0.0264105   
     length 1.72601   
     axis 0 0 0   XYZ
    dof rx ry rz
    limits (-20.0 45.0)
           (-30.0 30.0)
           (-30.0 30.0)
  end
  begin
     id 16
     name head
     direction 0.0120552 0.999916 0.00480151  
     length 1.79973  
     axis 0 0 0   XYZ
    dof rx ry rz
    limits (-20.0 45.0)
           (-30.0 30.0)
           (-30.0 30.0)
  end
  begin
     id 17 
     name lclavicle
     direction 0.909 0.371533 -0.188897  
     length 3.47956  
     axis 0 0 0   XYZ
    dof ry rz
    limits (-20.0 10.0)
           (0.0 20.0)
  end
  begin
     id 18 
     name lhumerus
     direction 1 -4.48963e-011 -6.48352e-028   
     length 5.52302   
     axis 180 -30 -90   XYZ
    dof rx ry rz
    limits (-60.0 90.0)
           (-90.0 90.0)
           (-90.0 90.0)
  end
  begin
     id 19
     name lradius
     direction 1 -4.48968e-011 -4.78536e-027   
     length 3.58675   
     axis 180 -30 -90   XYZ
    dof rx
    limits (-10.0 170.0)
  end
  begin
     id 20
     name lwrist
     direction 1 -4.48942e-011 -9.9435e-027   
     length 1.79337   
     axis 8.54312e-015 90 90   XYZ
    dof ry
    limits (-180.0 0.0)
 end
  begin
     id 21 
     name lhand
     direction 1 -4.4904e-011 -1.9887e-026   
     length 0.536412   
     axis 1.26896e-014 90 90   XYZ
    dof rx rz
    limits (-90.0 90.0)
           (-45.0 45.0)
  end
  begin
     id 22 
     name lfingers
     direction 1 -4.48893e-011 -3.9774e-026   
     length 0.432469   
     axis 2.53792e-014 90 90   XYZ
    dof rx
    limits (0.0 90.0)
  end
  begin
     id 23
     name lthumb
     direction 0.707107 -6.34934e-011 0.707107   
     length 0.620942   
     axis -90 45 2.85299e-015   XYZ
    dof rx rz
    limits (-45.0 45.0)
           (-45.0 45.0)
  end
  begin
     id 24 
     name rclavicle
     direction -0.89595 0.416672 -0.153813   
     length 3.44099  
     axis 0 0 0   XYZ 
    dof ry rz
    limits (-10.0 20.0)
           (-20.0 0.0)
  end
  begin
     id 25 
     name rhumerus
     direction -1 -4.48952e-011 5.57804e-028  
     length 5.8478   
     axis 180 30 90   XYZ
    dof rx ry rz
    limits (-90.0 60.0)
           (-90.0 90.0)
           (-90.0 90.0)
  end
  begin
     id 26 
     name rradius
     direction -1 -4.48967e-011 -7.93646e-027   
     length 3.62717   
     axis 180 30 90   XYZ
    dof rx
    limits (-10.0 170.0)
  end
  begin
     id 27 
     name rwrist
     direction -1 -4.49008e-011 -9.9435e-027   
     length 1.81359   
     axis 8.54312e-015 -90 -90   XYZ
    dof ry
    limits (-180.0 0.0)
  end
  begin
     id 28
     name rhand
     direction -1 -4.48812e-011 -1.9887e-026   
     length 0.650516   
     axis 1.26896e-014 -90 -90   XYZ
    dof rx rz
    limits (-90.0 90.0)
           (-45.0 45.0)
  end
  begin
     id 29
     name rfingers
     direction -1 -4.49228e-011 -3.9774e-026   
     length 0.524463   
     axis 2.53792e-014 -90 -90   XYZ
    dof rx
    limits (0.0 90.0)
  end
  begin
     id 30
     name rthumb
     direction -0.707107 -6.34912e-011 0.707107   
     length 0.753027   
     axis -90 -45 -2.85299e-015   XYZ
    dof rx rz
    limits (-45.0 45.0)
           (-45.0 45.0)
  end
:hierarchy
  begin
    root lhipjoint rhipjoint lowerback
    lhipjoint lfemur
    lfemur ltibia
    ltibia lfoot
    lfoot ltoes
    rhipjoint rfemur
    rfemur rtibia
    rtibia rfoot
    rfoot rtoes
    lowerback upperback
    upperback thorax
    thorax lowerneck lclavicle rclavicle
    lowerneck upperneck
    upperneck head
    lclavicle lhumerus
    lhumerus lradius
    lradius lwrist
    lwrist lhand lthumb
    lhand lfingers
    rclavicle rhumerus
    rhumerus rradius
    rradius rwrist
    rwrist rhand rthumb
    rhand rfingers
  end

#!OML:ASF F:\VICON\USERDATA\INSTALL\rory3\rory3.ASF
:FULLY-SPECIFIED
:DEGREES
1199
root -10.0438 17.9561 33.3227 -187.924 65.784 -189.773
lowerback 10.1162 -6.98895 -5.23554
upperback 4.29076 -9.55123 -0.808146
thorax -0.411412 -4.7434 2.96555
lowerneck -0.455199 -22.9746 -0.0424877
upperneck 22.7635 -32.533 7.46313
head 8.63985 -14.6798 -0.207123
rclavicle 9.18385e-014 -2.26615e-014
rhumerus -36.0303 -15.8583 -70.3871
rradius 29.9622
rwrist 13.9271
rhand -14.8898 17.7776
rfingers 7.12502
rthumb 11.271 -11.8996
lclavicle 9.18385e-014 -2.26615e-014
lhumerus -20.7929 -3.22388 77.4376
lradius -1.23428
lwrist 18.6384
lhand -37.7701 31.2033
lfingers 7.12502
lthumb -10.8175 60.9047
rfemur -20.4627 14.4271 5.94211
rtibia 50.9691
rfoot -3.39443 -17.8032
rtoes 13.5019
lfemur -8.83253 -1.01916 -25.0562
ltibia 19.6087
lfoot -8.04683 20.777
ltoes 4.68934
1200
root -10.0884 17.9637 33.4669 -188.022 66.7078 -189.69
lowerback 10.4526 -6.79727 -5.24716
upperback 4.22661 -9.31947 -0.666781
thorax -0.655188 -4.62193 3.14908
lowerneck -0.104671 -22.6358 -1.59607
upperneck 22.9725 -32.2068 8.29918
head 9.03516 -14.5407 0.170118
rclavicle 2.8625e-014 -2.14687e-014
rhumerus -35.9652 -15.851 -70.2619
rradius 29.989
rwrist 14.1387
rhand -17.8909 17.5901
rfingers 7.12502
rthumb 8.37563 -12.2238
lclavicle 2.8625e-014 -2.14687e-014
lhumerus -21.7546 -3.18285 77.1033
lradius -1.43147
lwrist 19.8337
lhand -37.9189 33.0933
lfingers 7.12502
lthumb -10.961 62.7872
rfemur -19.4336 13.9973 5.72281
rtibia 50.1982
rfoot -2.83859 -18.6686
rtoes 16.7501
lfemur -8.79388 -1.3612 -24.317
ltibia 19.3127
lfoot -7.89476 21.7075
ltoes 6.19444
1201
root -10.1167 17.9775 33.5968 -188.797 67.4096 -190.372
lowerback 10.4245 -6.64833 -5.35738
upperback 4.26752 -9.12854 -0.678583
thorax -0.598443 -4.52994 3.17356
lowerneck -0.834676 -22.9438 0.666636
upperneck 22.6421 -32.3653 6.67286
head 8.39206 -14.6301 -0.470361
rclavicle 4.67144e-014 3.97569e-016
rhumerus -35.9243 -16.1306 -70.0984
rradius 30.0694
rwrist 14.4298
rhand -19.5602 17.4981
rfingers 7.12502
rthumb 6.76435 -12.3738
lclavicle 4.67144e-014 3.97569e-016
lhumerus -22.7516 -3.22139 76.8777
lradius -1.1638
lwrist 21.0048
lhand -37.1241 33.8954
lfingers 7.12502
lthumb -10.1943 63.6284
rfemur -18.2061 13.258 5.1056
rtibia 49.2913
rfoot -2.34484 -20.2744
rtoes 19.7466
lfemur -8.59797 -1.89201 -24.0164
ltibia 18.8802
lfoot -7.05638 23.1626
ltoes 2.93293
1202
root -10.1457 17.9978 33.7377 -189.386 67.4881 -191.218
lowerback 10.0772 -6.6775 -5.45875
upperback 4.27081 -9.16102 -0.807151
thorax -0.408802 -4.5529 3.05292
lowerneck -0.168884 -22.4492 -2.08321
upperneck 22.955 -32.0382 8.71881
head 9.18227 -14.4501 0.322952
rclavicle -6.95746e-016 6.75868e-015
rhumerus -35.9344 -16.4527 -70.0742
rradius 30.211
rwrist 14.5297
rhand -19.7133 17.2927
rfingers 7.12502
rthumb 6.6166 -12.5839
lclavicle -6.95746e-016 6.75868e-015
lhumerus -23.8275 -3.32936 76.9228
lradius -0.421982
lwrist 22.6625
lhand -38.2675 34.2884
lfingers 7.12502
lthumb -11.2973 63.9642
rfemur -17.032 11.8856 4.35188
rtibia 48.3041
rfoot -2.25286 -22.1247
rtoes 21.6378
lfemur -8.82196 -3.0175 -23.5992
ltibia 18.3428
lfoot -5.48992 24.5947
ltoes -1.48416
1203
root -10.1503 17.9996 33.8413 -191.037 68.3685 -192.535
lowerback 9.8337 -6.49644 -5.21925
upperback 4.45889 -8.87506 -1.10961
thorax -0.192731 -4.4093 2.55329
lowerneck -0.436932 -22.4027 -1.78952
upperneck 23.2387 -31.957 8.36656
head 9.2105 -14.3884 0.172093
rclavicle -5.31749e-014 0
rhumerus -35.9545 -16.336 -69.9935
rradius 30.3157
rwrist 14.3203
rhand -19.3945 17.4592
rfingers 7.12502
rthumb 6.92436 -12.4075
lclavicle -5.31749e-014 0
lhumerus -25.0465 -3.29862 77.1913
lradius 0.300353
lwrist 23.9072
lhand -39.7404 34.8678
lfingers 7.12502
lthumb -12.7175 64.4605
rfemur -15.3439 11.2332 3.40585
rtibia 47.1488
rfoot -3.11672 -23.668
rtoes 25.3801
lfemur -8.24877 -3.35248 -23.6947
ltibia 17.9834
lfoot -5.55067 25.7531
ltoes -0.698685
1204
root -10.1663 18.0113 33.9653 -191.646 69.2594 -192.757
lowerback 9.96657 -6.2998 -4.98644
upperback 4.54393 -8.5949 -1.08843
thorax -0.231037 -4.26541 2.44146
lowerneck -0.614069 -22.3665 -1.6598
upperneck 23.3196 -31.8873 8.16197
head 9.2051 -14.3508 0.0917838
rclavicle -7.68303e-014 1.78906e-015
rhumerus -35.8918 -15.946 -69.9059
rradius 30.3578
rwrist 13.9716
rhand -19.186 17.3521
rfingers 7.12502
rthumb 7.12561 -12.5079
lclavicle -7.68303e-014 1.78906e-015
lhumerus -26.4015 -3.03163 77.9394
lradius 1.17299
lwrist 24.929
lhand -40.1344 36.215
lfingers 7.12502
lthumb -13.0974 65.7838
rfemur -13.6894 10.8967 2.98272
rtibia 45.9786
rfoot -6.06691 -25.5324
rtoes 32.389
lfemur -7.78456 -3.73596 -23.2348
ltibia 17.6097
lfoot -5.47276 26.8641
ltoes 0.0141812
1205
root -10.1947 18.0214 34.1122 -191.062 69.9068 -192.095
lowerback 10.0972 -6.15956 -4.7915
upperback 4.45659 -8.40638 -0.876885
thorax -0.404614 -4.16851 2.56109
lowerneck -0.696338 -22.3107 -1.66855
upperneck 23.2424 -31.7878 8.07378
head 9.16858 -14.3159 0.0755193
rclavicle -1.42131e-014 1.82882e-014
rhumerus -35.9275 -15.5693 -69.9404
rradius 30.4179
rwrist 13.5021
rhand -19.2844 17.196
rfingers 7.12502
rthumb 7.0306 -12.6672
lclavicle -1.42131e-014 1.82882e-014
lhumerus -27.4099 -3.16939 77.8251
lradius 1.6586
lwrist 25.7892
lhand -39.3912 35.7916
lfingers 7.12502
lthumb -12.3809 65.405
rfemur -12.7516 9.2014 3.23382
rtibia 44.6756
rfoot -2.61837 -28.1256
rtoes 26.3378
lfemur -7.86266 -4.39297 -22.1735
ltibia 17.2692
lfoot -5.16156 27.9073
ltoes 1.18532
1206
root -10.2228 18.0485 34.2596 -190.496 70.5529 -191.383
lowerback 10.3044 -6.03294 -4.51582
upperback 4.37039 -8.23003 -0.714665
thorax -0.636939 -4.07376 2.5963
lowerneck -0.792089 -22.2003 -1.80519
upperneck 23.2828 -31.6215 7.9754
head 9.19022 -14.2485 0.0647504
rclavicle 2.54444e-014 -5.96354e-016
rhumerus -35.9826 -14.7941 -70.083
rradius 30.5337
rwrist 12.6336
rhand -19.1626 17.0401
rfingers 7.12502
rthumb 7.1482 -12.8191
lclavicle 2.54444e-014 -5.96354e-016
lhumerus -28.3919 -3.20759 77.9628
lradius 1.93618
lwrist 26.1912
lhand -37.3199 34.9147
lfingers 7.12502
lthumb -10.3832 64.6383
rfemur -11.3246 8.62574 3.24575
rtibia 43.3929
rfoot -6.99914 -30.4019
rtoes 34.6447
lfemur -7.93498 -5.04249 -21.0945
ltibia 17.0353
lfoot -4.82795 28.9922
ltoes 2.98486
1207
root -10.2399 18.0599 34.3938 -190.665 71.3875 -191.244
lowerback 10.3685 -5.8694 -4.11147
upperback 4.44928 -7.97445 -0.749716
thorax -0.671326 -3.94002 2.32464
lowerneck -0.850872 -22.1232 -1.64967
upperneck 23.1434 -31.4859 7.86584
head 9.09624 -14.1954 0.0427196
rclavicle -1.98288e-014 1.39149e-015
rhumerus -35.9747 -14.0721 -70.1227
rradius 30.5919
rwrist 12.0102
rhand -18.7151 17.156
rfingers 7.12502
rthumb 7.58016 -12.6881
lclavicle -1.98288e-014 1.39149e-015
lhumerus -29.3527 -3.15802 78.2766
lradius 2.30746
lwrist 26.8999
lhand -36.1185 32.8806
lfingers 7.12502
lthumb -9.22415 62.6589
rfemur -9.97145 7.76024 3.17442
rtibia 42.0718
rfoot -8.21876 -32.7854
rtoes 36.4425
lfemur -7.72456 -5.50017 -20.406
ltibia 16.8966
lfoot -4.91317 30.1689
ltoes 5.22968
1208
root -10.2539 18.0574 34.5273 -190.645 72.3031 -190.895
lowerback 10.4542 -5.7104 -3.6854
upperback 4.48929 -7.72558 -0.694343
thorax -0.743788 -3.81013 2.13729
lowerneck -0.89983 -22.0278 -1.63283
upperneck 22.9612 -31.3223 7.78566
head 9.01071 -14.1394 0.0445114
rclavicle 1.1778e-014 2.5842e-015
rhumerus -35.9961 -14.2612 -69.9782
rradius 30.5073
rwrist 12.4616
rhand -18.6764 17.0751
rfingers 7.12502
rthumb 7.61746 -12.7677
lclavicle 1.1778e-014 2.5842e-015
lhumerus -29.857 -3.68589 77.0327
lradius 2.40071
lwrist 28.0272
lhand -36.1586 29.0173
lfingers 7.12502
lthumb -9.26282 58.7938
rfemur -8.84756 6.64224 3.24635
rtibia 40.8793
rfoot -7.4762 -35.5087
rtoes 35.8001
lfemur -7.36627 -5.90178 -19.6581
ltibia 16.6356
lfoot -5.3494 31.2498
ltoes 7.32167
1209
root -10.2719 18.0529 34.6664 -190.375 73.2559 -190.524
lowerback 10.4508 -5.54563 -3.3869
upperback 4.39961 -7.48761 -0.572742
thorax -0.873315 -3.68886 2.08448
lowerneck -1.07513 -21.8927 -1.7275
upperneck 23.1523 -31.1139 7.54329
head 9.06448 -14.0471 -0.0203522
rclavicle 8.31914e-014 -4.77083e-015
rhumerus -35.9286 -13.1494 -70.0607
rradius 30.4615
rwrist 11.5944
rhand -18.9026 16.7214
rfingers 7.12502
rthumb 7.39912 -13.1292
lclavicle 8.31914e-014 -4.77083e-015
lhumerus -31.0645 -3.18971 78.0303
lradius 3.02211
lwrist 29.4389
lhand -37.8928 28.983
lfingers 7.12502
lthumb -10.9359 58.6782
rfemur -8.0304 5.72488 3.31195
rtibia 39.7697
rfoot -7.05823 -38.0227
rtoes 35.8906
lfemur -7.22994 -6.25876 -18.8055
ltibia 16.3288
lfoot -5.10505 32.2686
ltoes 6.83339
1210
root -10.2925 18.0528 34.8211 -190.739 74.1008 -190.983
lowerback 10.2624 -5.36785 -3.38414
upperback 4.34242 -7.25423 -0.597375
thorax -0.847984 -3.57512 2.02022
lowerneck -0.657015 -21.9504 -1.78383
upperneck 23.0705 -31.2024 7.77508
head 9.02321 -14.0941 0.0914836
rclavicle -6.74377e-014 1.63003e-014
rhumerus -35.8302 -13.0393 -70.2444
rradius 30.2244
rwrist 11.7912
rhand -19.3482 16.4638
rfingers 7.12502
rthumb 6.969 -13.4014
lclavicle -6.74377e-014 1.63003e-014
lhumerus -31.7932 -3.42538 77.4814
lradius 3.40553
lwrist 30.4327
lhand -36.8674 28.4577
lfingers 7.12502
lthumb -9.94668 58.2027
rfemur -7.4107 4.97095 3.14627
rtibia 38.7589
rfoot -6.70978 -39.9247
rtoes 36.2025
lfemur -7.28776 -6.66771 -18.1432
ltibia 16.0072
lfoot -4.65199 33.307
ltoes 6.71998
1211
root -10.3159 18.06 34.9827 -190.518 74.8728 -190.747
lowerback 10.6371 -5.32347 -3.79299
upperback 4.02762 -7.26391 -0.243501
thorax -1.27963 -3.57954 2.66345
lowerneck 1.21857 -22.2075 -2.14171
upperneck 22.0272 -31.4132 8.36859
head 8.52529 -14.3342 0.542475
rclavicle 1.64817e-013 -1.91827e-014
rhumerus -35.894 -12.1775 -70.1056
rradius 30.0456
rwrist 12.1253
rhand -19.5165 16.6015
rfingers 7.12502
rthumb 6.80661 -13.2691
lclavicle 1.64817e-013 -1.91827e-014
lhumerus -33.1555 -2.85094 77.563
lradius 4.04187
lwrist 31.2616
lhand -36.8786 27.3173
lfingers 7.12502
lthumb -9.9575 57.0618
rfemur -6.76312 4.04307 3.27027
rtibia 37.8477
rfoot -5.10002 -41.0143
rtoes 35.9433
lfemur -7.25252 -7.18988 -17.3434
ltibia 15.6814
lfoot -4.58011 34.4916
ltoes 8.50131
1212
root -10.3357 18.0673 35.144 -188.719 75.8882 -188.849
lowerback 10.8225 -5.07928 -3.35377
upperback 3.86875 -6.90955 0.0133489
thorax -1.59261 -3.39595 2.68221
lowerneck 1.26879 -22.2205 -2.20429
upperneck 21.9391 -31.4072 8.30725
head 8.48415 -14.3498 0.542996
rclavicle 2.93456e-014 2.78299e-015
rhumerus -36.0911 -12.9548 -69.7188
rradius 29.832
rwrist 13.1461
rhand -19.2174 16.8331
rfingers 7.12502
rthumb 7.09529 -13.028
lclavicle 2.93456e-014 2.78299e-015
lhumerus -34.1464 -2.93297 77.769
lradius 4.60528
lwrist 32.0391
lhand -37.3788 25.9873
lfingers 7.12502
lthumb -10.44 55.7081
rfemur -6.17838 3.45872 3.91463
rtibia 37.0096
rfoot -4.1151 -41.585
rtoes 36.5764
lfemur -7.07692 -7.53752 -16.0501
ltibia 15.3072
lfoot -4.89259 35.6467
ltoes 10.4282
